<svg xmlns="http://www.w3.org/2000/svg" viewBox="0 0 375 667"><defs><style>.cls-1{fill:#3a2d33;}</style></defs><title>westgate_mobile</title><g id="Layer_2" data-name="Layer 2"><g id="Layer_1-2" data-name="Layer 1"><path class="cls-1" d="M191.39,312.61c-.19.75-.76,2.43-1.14,4.1a33.75,33.75,0,0,1,2.76-3.46c2.48-2.89,4.67-6.09,6.91-9.19L198.3,300c-.28.11-.56.22-.85.31C193.16,301.64,192.34,308.77,191.39,312.61Z"/><path class="cls-1" d="M136.42,344.81c-.5-.48-1.16.27-.83.79a50.25,50.25,0,0,0,7.15,8.71c.34.34.76-.18.56-.53A38.51,38.51,0,0,0,136.42,344.81Z"/><path class="cls-1" d="M216.72,199.87a.71.71,0,0,1,.55-.74c7.61-1.66,8.37-10.41,7.3-16.66-.45-2.63-1-5.94-3.79-3.54-1.15,1-2.34,1.91-3.46,2.94a10.55,10.55,0,0,0-1.11,1.19,10.92,10.92,0,0,1,3.28-2.23c.26-.1.56.23.35.46-.86.88-1.73,1.74-2.52,2.69-1.17,1.42-1.74,3.08-2.73,4.59a.41.41,0,0,1-.73-.19,3.85,3.85,0,0,1,0-.76,10.93,10.93,0,0,0-.19,6.51c.68,2.05,1.8,3.21,1.46,5.46-.45,2.92-1.94,5.89-2.92,8.65l0,0h.94C213.9,205.26,214.84,202.25,216.72,199.87Zm1.38-2c-.33.08-.44-.36-.19-.52a16.13,16.13,0,0,0,2.25-1.69c.64-.59,1.15-1.29,1.81-1.85a.26.26,0,0,1,.44.23C222,196.1,220,197.43,218.1,197.87Zm4.39-17.65a.39.39,0,0,1,.61-.07,2.85,2.85,0,0,1,.57,2,15.59,15.59,0,0,1,0,3.13c-.05.41-.71.62-.87.16a10.75,10.75,0,0,1-.38-2.53A5,5,0,0,1,222.49,180.22Zm-.71-.5c.21-.17.44.11.36.32-.51,1.24-1.35,2.34-2,3.53-.49.93-.81,2-1.33,2.86a.25.25,0,0,1-.47-.08C217.9,184,220.06,181.14,221.78,179.72Zm-5.14,16.36A4,4,0,0,1,218,194.5c.4-.26,1.06,0,.93.57a3.08,3.08,0,0,1-1.47,2.08C216.72,197.51,216.42,196.61,216.64,196.08Zm-.94-3.4c.12-.18.45-.25.56,0,.42,1,0,2-.09,2.94a.41.41,0,0,1-.73.2A3.07,3.07,0,0,1,215.7,192.68Z"/><path class="cls-1" d="M50.61,263.58a13.48,13.48,0,0,1,2.21,1.75,70.11,70.11,0,0,0-4.88-11.74c-.33-.59.56-1.12,1-.63a23.1,23.1,0,0,1,4.21,8.35l1.3,4.16.66-2A31.89,31.89,0,0,1,55,251.32a.66.66,0,0,1,1.32.13c-.16,1.81-.35,3.58-.33,5.39,0,1.38.19,2.75.31,4.13a21.38,21.38,0,0,1,1.16-1.81,169.48,169.48,0,0,1,2.92-21.58,28.9,28.9,0,0,0-7.46,13.28,1,1,0,0,1-1.88.28c-3.15-4.87-8.08-6.55-13.39-7.27,5.88,5.2,11.28,11.33,12.88,19.2C50.51,263.22,50.61,263.58,50.61,263.58Z"/><path class="cls-1" d="M106.71,324c-3.37-2.45-10.75-8.28-12.83-12.05-3.39-6.15-3.24-15.13-.82-21.82-5.41,2.39-6.72,8-6.06,13.51.14,1.23-1.3,1.35-1.5.21a16.06,16.06,0,0,1,0-6.77c-.89-6.39.64-13.34,2.8-19.71l-.85-2.16A19.86,19.86,0,0,0,83,285l0,0v0a.68.68,0,0,1-1.23.15l0,0a26.36,26.36,0,0,0-6.83-6.82,58.94,58.94,0,0,1,5.4,13.92c.77,3.23,1,6.53,1.46,9.8a.41.41,0,0,1,0,.11c0,.12,0,.24,0,.35.93,5,5.36,9.14,7,10.82.9.91-.15,1.62-.89,1A30.83,30.83,0,0,1,81,305.63c-2.34-2.19-4.89-4.18-7.16-6.44-.29-.29,0-.95.42-.67,2.27,1.65,4,3.25,5.9,4.68,0-.08,0-.16-.07-.25a9.15,9.15,0,0,1-.18-.91l-3.52-4.46a35.62,35.62,0,0,1-4.93-8.29c-1.91-4.55-3.68-10.51-3.45-16A13.69,13.69,0,0,0,65,281.78l-.08,3c-.11,1.07-1.24,1.12-1.46.05,0-.25,0-.49-.07-.73a21.8,21.8,0,0,1-4.42-8.6c-.09-.35.4-.49.57-.2.77,1.33,1.39,2.75,2.14,4.1.47.85,1,1.67,1.53,2.51.31-2.53-1-6.36-1.47-8.2a26.47,26.47,0,0,1-.55-7.83c.35-3.49,1.71-6.75,2.25-10.21A17.44,17.44,0,0,0,58.85,260l-.29.44a18.73,18.73,0,0,0-3.08,8.4c-.08.72-1.1,1.2-1.5.4-2.79-5.55-8.27-6.54-13.61-7.36a113.94,113.94,0,0,1,13.7,13.82,96,96,0,0,1,6.83,9.77,79.38,79.38,0,0,0,9.7,12.93c.23.17,2.31,2.26,2.5,2.47A55.2,55.2,0,0,1,78.63,308c.42.62-.52,1.29-1,.78-2.36-2.39-4.16-5.23-6.47-7.67s-5.7-4.24-8.76-6c.65,3.35,1.73,7,4,9.49a.74.74,0,0,1-.93,1.12L63,303.24c-4.05-4.61-7.6-9.35-12-13.6.4,3.48,1.86,6.1,4,9.26.54.81-.72,1.5-1.33.9L51,296.6a106,106,0,0,1-9.95-13.88c-2-3.29-2.51-7.18-4-10.62a21.94,21.94,0,0,0,2.42,12.28c.45.93-.58,1.62-1.09.71l-1-1.59a8.94,8.94,0,0,0-2.11-2.45,55,55,0,0,0-5.89-4.22,45.05,45.05,0,0,0,3.2,5.44c1.92,2.69,4.68,4.18,7.29,6a16.7,16.7,0,0,1,4.17,3.27c.62.62,0,1.44-.87.73a11,11,0,0,0-9.86-2.46c5.26,5.23,11.59,8.71,18.44,11.55a18.07,18.07,0,0,1,7.08,1.8c.76.4.55,1.81-.41,1.57-4.21-1-9.48-2.31-13.75-.52,4.38,1.1,8.56,2.37,13.16,2.45l.83,0a34.08,34.08,0,0,1,9.87,1.23c1.55.4.85,1.36.06,1.24-3-.46-5.84-1.18-9-1a18.69,18.69,0,0,0-5.81,1.72c7.7,2.41,15.37,2.3,23.36,3.22a27.56,27.56,0,0,1,5.87-.5.54.54,0,0,1,.12,1.06c-6,1.63-13.54,2.69-18.52,7a54.45,54.45,0,0,1,25.82-.26c7.61,1.82,13.65,6.69,19.41,11.77l-1.27-3.23Z"/><path class="cls-1" d="M204.32,203.47c.85-2.51,2.5-4.58,3.63-7a20.81,20.81,0,0,0,1.43-11.6,11.29,11.29,0,0,0-1.72-4c-2.44-3.75-5.32.11-6.33,2.47-1.15,2.65-2.64,5.2-3.47,8a9.75,9.75,0,0,0,0,4.74c.49,2.53,2.41,3.82,4,5.59,1.16,1.31.73,4,.67,5.55,0,.34,0,.67,0,1h1.59a13.19,13.19,0,0,1,.22-4.57A.48.48,0,0,1,204.32,203.47Zm-3.88-5.1c-1.64-.46-2.12-3.73-1.08-4.85a.36.36,0,0,1,.63.16c.16.73.19,1.49.32,2.23a13.64,13.64,0,0,1,.43,2.26A.23.23,0,0,1,200.44,198.37Zm5.61-16.86a.4.4,0,0,1,.4-.27c1,.17,1.46,1.56,1.79,2.39s.76,2.19.15,3.06a.24.24,0,0,1-.38,0c-.49-.81-.62-1.84-1-2.71S205.8,182.37,206.05,181.51Zm-1.15.08a.29.29,0,0,1,.5-.16,4.1,4.1,0,0,1,1,3.29.25.25,0,0,1-.45.09A4.5,4.5,0,0,1,204.9,181.59Zm-2.59,17.21a.4.4,0,0,1-.73,0,5.28,5.28,0,0,1,.87-4.71.26.26,0,0,1,.44.12,4.58,4.58,0,0,1,0,1.73A22.35,22.35,0,0,1,202.31,198.8Zm.93.95c-.18.09-.47-.05-.39-.28.44-1.21,1-2.34,1.35-3.59a8.84,8.84,0,0,1,1.12-3,.29.29,0,0,1,.51.13C206.09,195.18,205.38,198.68,203.24,199.75Zm1,.93c-.14-1.82,1.59-3.38,2.23-5,.86-2.17,1-4.52,2.2-6.56a.25.25,0,0,1,.47.16c-.41,4.06-1.69,8.55-4.64,11.51A.16.16,0,0,1,204.26,200.68Z"/><path class="cls-1" d="M178,272.18c-1.07,2.23-2.08,4.49-3.17,6.71-1.73,3.53.6,7.32,1.83,10.63,3.47,9.31,6.35,18.79,10,28a17.91,17.91,0,0,1,0-7.41c.92-4,1.91-7.65,4.13-10.95-5.18-4.91-3.07-11.75,1-15.78l-8.53-21.78A102.59,102.59,0,0,0,178,272.18Z"/><path class="cls-1" d="M225.5,226.39a53.13,53.13,0,0,1,5-3.5,1.76,1.76,0,0,1,1-.38c.47,0,.78.41,1.16.63a13.91,13.91,0,0,0,1.55.76,15.6,15.6,0,0,0,3.28,1.09c3,.62,6.11-1.82,8-3.91,2.15-2.39,3.08-6.21,3.29-9.4.12-1.66-1.94-.93-3.3-1.1a16.25,16.25,0,0,0-5.56-.25c-2.1.43-3.57,2.32-4.78,3.92-1.59,2.11-2.07,5.35-4.62,6.54a32.06,32.06,0,0,1-2.63,2c-1,.75-2,1.5-3,2.19.15.27.3.54.43.83A5.59,5.59,0,0,1,225.5,226.39Zm11.94-8.86a.31.31,0,0,1-.16-.4,3,3,0,0,1,1.15-1c.77-.52,1.57-1,2.38-1.45,1-.55,2.43-1.19,3.52-.53a.28.28,0,0,1-.17.51c-1.32-.05-2.53.81-3.6,1.47C239.74,216.66,238.47,217.85,237.44,217.53Zm3,1.08c1.41-1,2.75-2.14,4.06-3.3.66-.59,1.54.47.88,1.06a51.57,51.57,0,0,1-4.07,3.31C240.57,220.2,239.68,219.14,240.41,218.61Zm6.58-1.25-2.42,3.26c-.52.71-1.65-.08-1.12-.79l2.41-3.26C246.38,215.85,247.52,216.64,247,217.36Zm-10.66-2.74c1.15-1.29,3.44-1.74,5-2.19a9.42,9.42,0,0,1,4.5-.33.29.29,0,0,1,0,.57c-1.54.37-3.08.67-4.58,1.15s-3.12,1.59-4.75,1.49A.4.4,0,0,1,236.33,214.62Z"/><path class="cls-1" d="M196.44,311.13a90.72,90.72,0,0,0-6.39,10.07c-.12.21-.3.45-.55.45s-.46-.46-.48-.81a35.64,35.64,0,0,1,1.07-8.38,52.92,52.92,0,0,1,2.42-8.63c.66-1.8,1.26-4,3.36-4.56a9,9,0,0,0,1.87-.76l-5.51-14.08a11,11,0,0,0-2.34,3.86,10.31,10.31,0,0,0-.54,4.8,10.91,10.91,0,0,0,2.44,5.1c.38.52.63.7.51,1.27a8.42,8.42,0,0,1-.89,1.6,31.94,31.94,0,0,0-1.33,3.13c-.78,2.1-1.37,4.27-2,6.42-1.18,3.92.1,8-.64,12-.56,0-.86-.64-1-1.17-3.43-11.13-7.55-22.06-11.54-33-.34-.95-.69-1.9-1-2.85a10.14,10.14,0,0,1-.92-5.3c.36-2.16,2-4.44,2.9-6.4,2.11-4.52,4.09-9.53,6.93-13.75l-.22-.56-.44-1.12c-3.13,4.79-5.48,10.07-7.92,15.23-.26.55-1.2.44-1.11-.24.46-3.46.16-6.85.78-10.36a41.37,41.37,0,0,1,3.54-11.9,1.41,1.41,0,0,1,.4-.41c.08,0,.52-.16,1.13-.37l-3.28-8.31a14.66,14.66,0,0,0,.19,7c.44,1.86-.84,4.17-1.31,5.85a53.23,53.23,0,0,0-1.44,8.32c-.36,3.13-1,6.47-.5,9.63a.69.69,0,0,1-1.36.24s0-.08,0-.11l-1.6-3.5c-.47-1-1.32-2.72-1.9-3.72-2.23-3.8-4.16-7.73-4.65-12.16a38.61,38.61,0,0,0-.77-4.38c-.7-3,.34-4.17,1.34-6.72a22.57,22.57,0,0,0,1.77-8.56,7.49,7.49,0,0,0-.49-2.51c-.9-3.31-3-4.14-3-4.14a4.44,4.44,0,0,0-5,.34c-2.77,2.2-3.28,5.51-3.26,8.85,0,4.16,2.5,6.2,5.56,8.43a.56.56,0,0,1,.22.7.89.89,0,0,0,0,.56,41.3,41.3,0,0,1,.86,5.17,39.66,39.66,0,0,0,3,11.25c1.39,3.58,4.13,6.5,5.9,10.95.25.63-.45,1-.93.82-8.31-3.55-18.18-4.7-25-11.23-2.27-2.16-2.1-4.62-2.16-7.58-.1-4.61-4.31-7.41-8.5-8.06-5.06-.79-8,4.08-5.94,8.49l0,.07c2,4.59,8.27,5.33,10,5.44a2.34,2.34,0,0,1,.85.23l2.69,1.31c4.49,2.25,8,6.06,12.91,7.74,2.51.86,5,1.66,7.53,2.52,1.72.59,3.32,1.44,5,2.06a13.79,13.79,0,0,0,2.07.65c.49.11,1.22,0,1.53.49a1.33,1.33,0,0,1,.13.79c-.16,4,.84,7.26,1.92,11.52.49,1.92,1,3.83,1.62,5.71a242.34,242.34,0,0,0,9.83,24c1.75,3.84,4.24,6.56,2.34,10.75-2.63,5.82-4.75,13.35-7.53,19.13a.69.69,0,0,1-1.17.22c-4-4.74-6.56-14.09-10.63-18.77-1.13-1.31-2.4-2.52-2.58-4.31s1.28-3.75,1.39-5.6c.2-3.35-1-6.56-3.89-8.17a4.6,4.6,0,0,1-.9,3.16.41.41,0,0,1-.63-.15c-.27-.74.31-2.6,0-3.33a3.69,3.69,0,0,1-.35-.93l-.17-.15a7.35,7.35,0,0,1-.84,2.8c-.15.32-.57.13-.6-.16-.07-.51.12-2.35-.18-2.74a11.73,11.73,0,0,1-1-1.32s0-.09,0-.13a3.62,3.62,0,0,0-2.35.78c-1.27.88-1.94,2.6-2.43,4-1.27,3.59,1.71,7.94,4.39,10.08,1.27,1,3,.76,4.29,1.76a13.79,13.79,0,0,1,2.84,3.83c1,1.66,3.47,5.79,5.28,8.8,1.13,1.88,3.48,5.93,4.08,8l2.82,5.24c.45.67,0,2.62-.15,3.39-.25,1.43-.9,4.73-2.55,11.5-.56,2.29-1.34,6.21-2,9.85l3,7.79c1.11-2.76,2.26-5.54,2.8-7.12a57.54,57.54,0,0,1,4.62-9.85,33.08,33.08,0,0,1,4.51-6.56c.9-.84,2.11-2.71,3.45-2.11,1.88.86,3,1.74,5.29,1.43a17.08,17.08,0,0,0,5.62-2c4.3-2.26,5.71-5.94,2.59-9.91-3.73-4.76-10-1.85-12.47,2.4-1.73,2.91-2.65,5.87-5.17,8.25-2.93,2.75-4.95,5.59-9.24,11-.17.35-.72.29-.66-.15,2.51-17.23,12.05-34.43,20.51-49.19q3.3-5.76,6.87-11.28l-1.22-3.13C199.08,307.67,197.6,309.66,196.44,311.13Zm-36.27-76.87a.51.51,0,0,1-.92-.13c-.26-.94-.39-1.9-.69-2.83a12.63,12.63,0,0,1-.83-3.36.38.38,0,0,1,.63-.28,7,7,0,0,1,1.52,2.65C160.3,231.5,160.76,233.07,160.17,234.26Zm1.27-5.75c.57.13.92,1.18,1.12,1.64a18.05,18.05,0,0,1,.8,2.49c.26,1,.52,2.54-.34,3.32a.5.5,0,0,1-.85-.34,13.56,13.56,0,0,0-1-4.4C160.9,230.39,159.89,228.16,161.44,228.51Zm-30.07,29.72a6.94,6.94,0,0,1-3.79-3.34c-.63-1.23-1.46-3.54-.49-4.74a.47.47,0,0,1,.74,0c.79,1,.49,2.67,1,3.89.63,1.45,2,2.39,2.9,3.65A.35.35,0,0,1,131.37,258.23Zm.69-3.94a.48.48,0,0,1-.64.22c-.46-.2-.69-.66-1-1s-.74-.94-1.09-1.43a4.5,4.5,0,0,1-.94-2.79c.05-.87,1.44-1.05,1.57-.13a5.89,5.89,0,0,0,1.13,2.57C131.58,252.39,132.42,253.39,132.06,254.29Zm2-1.95a18.22,18.22,0,0,1-1.89-1.52c-.63-.54-1.73-1.1-1.77-2a.5.5,0,0,1,.33-.48c.78-.32,1.5.37,2,.86a6,6,0,0,1,1.88,2.73A.39.39,0,0,1,134,252.34Zm28.31,65.94a.55.55,0,0,1-.84-.42,11.33,11.33,0,0,0-.27-2.24c-.17-.67-.44-1.56.16-2.07a.48.48,0,0,1,.48,0c.86.37,1,2.05,1.1,2.84A1.9,1.9,0,0,1,162.33,318.28Zm35.93,27.86c1.06.07,2.85.72,3.22,1.84a.47.47,0,0,1-.38.64c-.86,0-1.63-.61-2.47-.81a5.05,5.05,0,0,0-2.66.3.79.79,0,0,1-.75-.25C194,346.45,197.51,346.08,198.26,346.14Zm-4.54,3.53c.53-1.3,2.49-1.27,3.67-1.22a3.83,3.83,0,0,1,3.25,1.53.27.27,0,0,1-.3.39,14.29,14.29,0,0,0-3.51-.36c-1,0-2,.51-2.94.15A.38.38,0,0,1,193.72,349.67Z"/><path class="cls-1" d="M177.36,208.28h9.94c-.16-6.44.44-14.43-6.78-17.09a3.12,3.12,0,0,1-1-.65c-4-3.51-5.24,1.73-5.67,3.56a19.27,19.27,0,0,0,.58,10A8.39,8.39,0,0,0,177.36,208.28Zm-.88-13.88c.12-.3.6-.4.73-.05.5,1.32.69,2.75,1.13,4.09.51,1.53,1.61,2.9,1.93,4.48,0,.2-.21.42-.4.31-1.32-.75-2.05-2.37-2.68-3.7C176.49,198,175.8,196,176.48,194.4ZM175,195.77a.31.31,0,0,1,.58.1c.41,2,.43,4,1.19,6s2.28,3.4,3.56,5.11c.19.24,0,.68-.36.54C176.24,205.94,173,199.57,175,195.77Z"/><path class="cls-1" d="M177.73,252.66A60.54,60.54,0,0,0,175,263.22a53.69,53.69,0,0,0-.77,5.49,19.23,19.23,0,0,0,0,2.15A99.71,99.71,0,0,1,181.49,257l-2.17-5.49-.67.23A1.47,1.47,0,0,0,177.73,252.66Z"/><path class="cls-1" d="M62.41,216.45a23.75,23.75,0,0,0-3.76-3.67c-.11,1.67-.25,3.33-.46,5,1-1,2.06-1.86,3-2.65C61.64,215.56,62,216,62.41,216.45Z"/><path class="cls-1" d="M87.08,293.38a12.46,12.46,0,0,1,5.64-4.92l-3.39-8.63c-.39,1.39-.75,2.79-1.06,4.2A89.49,89.49,0,0,0,87.08,293.38Z"/><path class="cls-1" d="M86.79,273.4l-3.61-9.19c-.48,3.84.59,7.74,1.69,11.55A19.78,19.78,0,0,1,86.79,273.4Z"/><path class="cls-1" d="M130.07,341.35a.54.54,0,0,0,.2-1.05c-1.15-.35-2.34-.61-3.56-.94-1.51-.41-3-.83-4.61-1.39a115.19,115.19,0,0,1-11.84-5l1.14,2.95a56.45,56.45,0,0,0,7.26,2.92c-2,.11-3.16.24-6,.24l.7,1.76C118.94,340.6,124.9,341.13,130.07,341.35Z"/><path class="cls-1" d="M83.54,330.1a158,158,0,0,1,16.64,4.23,110.46,110.46,0,0,1,12.49,4.73l-1.27-3.16A49.72,49.72,0,0,0,83.54,330.1Z"/><path class="cls-1" d="M75,250.71c.56.56-.32,1.54-.92,1a20.64,20.64,0,0,0-6.23-3.64A177,177,0,0,1,76,263.91c2,4.85,2.62,10.36,3,15.55a.16.16,0,0,1,0,.07c.27.26.52.54.79.81,0-.37,0-.75-.08-1.11a15.43,15.43,0,0,1,0-3.9.33.33,0,0,1,.64,0,26.74,26.74,0,0,1,.39,3.8c.09.87.28,1.76.31,2.65.29.36.59.7.86,1.09.08-.38.22-.74.32-1.11l.79-2.36a20.83,20.83,0,0,1,.87-1.92v0c-1.78-4.92-3.62-10.83-1.81-16,0,0,0,0,0-.05l-1.57-4a17.83,17.83,0,0,0-1.75,3.43c-.39,1-1.82.28-1.5-.71a43,43,0,0,1,2.36-5h0L72.27,236.5a34.86,34.86,0,0,0,1.61,13.21C74.26,250,74.64,250.34,75,250.71Z"/><path class="cls-1" d="M47.45,245.06c.62.43,1.17.81,1.86,1.34a17.29,17.29,0,0,1,1.57,1.37l.66.68.36-1.19a32.26,32.26,0,0,1,2-4.3.27.27,0,0,1,0-.09,29.47,29.47,0,0,0,.85-5.44c0-.25,0-.52,0-.78a50.36,50.36,0,0,1-3,4.36c-.61.78-1.92-.23-1.39-1.06a153.87,153.87,0,0,0,9-15.46,27.58,27.58,0,0,0,1.85-6.83c-4.45,4-8.82,8.56-10,14.41a4.36,4.36,0,0,1,0,.52A9.41,9.41,0,0,1,51,234a.79.79,0,0,1-1.56,0c-.62-4.56-2.91-11.54-7.09-14.71,2.74,6.05,5.55,12.37,6.24,19a8.31,8.31,0,0,1,.32,1.11.58.58,0,0,1-1.05.44c-2.39-4.22-5.76-7-9.45-9.82a40.05,40.05,0,0,0,6.49,13.66S46.84,244.64,47.45,245.06Z"/><path class="cls-1" d="M57.12,204.85c-.41,1.13-.77,2.28-1.1,3.43h1.11C57.14,207.14,57.14,206,57.12,204.85Z"/><path class="cls-1" d="M51.5,208.28h1.93c.18-4.46-.29-8.76-2.54-12.7l0,5.36c0,.8-1.27,1.19-1.59.38a20.64,20.64,0,0,0-11.51-11.67c2.06,5.09,6.7,9.22,9.68,13.72A11.72,11.72,0,0,1,51.5,208.28Z"/><path class="cls-1" d="M56.6,233.41a.36.36,0,0,1,0,.15c-.11,1.73,0,3.66-.14,5.51a33.48,33.48,0,0,1,4.74-4.87c.66-.55,1.61.18,1.47,1-1.29,7.21-2.1,14.51-3.31,21.73a20.42,20.42,0,0,1,4.64-3.5c.49-.27,1.28-.08,1.29.6.12,5.09-2.49,9.62-2.57,14.72a33.72,33.72,0,0,0,1.35,8.07,16.45,16.45,0,0,1,4.3-6.47c.48-.44,1.52-.19,1.44.58a34.69,34.69,0,0,0,1.69,14.63,40.43,40.43,0,0,0,8,14c-.12-1.26-.2-2.52-.37-3.74a52,52,0,0,0-7-19.11.8.8,0,0,1,1.06-1.12,24.83,24.83,0,0,1,4,2.51c-.61-5.13-1.36-10.1-3.42-14.94-2.32-5.47-5.47-10.69-8.2-16a.78.78,0,0,1,.92-1.09,16.53,16.53,0,0,1,5.23,2.09A32.17,32.17,0,0,1,70.48,238a22.51,22.51,0,0,1,.66-4.38l-3.21-8.17A32.48,32.48,0,0,0,62.82,217a38.09,38.09,0,0,1-3.19,10.68C58.67,229.56,57.67,231.5,56.6,233.41Z"/><path class="cls-1" d="M218.21,240.87l2.21,5.64c-.2-1.52-.38-3.51-1.28-4.76A3.51,3.51,0,0,0,218.21,240.87Z"/><path class="cls-1" d="M49.63,226.82c.15.42.31.86.46,1.22a33.48,33.48,0,0,1,.21-10.25.66.66,0,0,1,1.32.13,51.13,51.13,0,0,0-.33,5.39c0,1.05.12,2.11.22,3.16l.12-.22a69.19,69.19,0,0,1,4.85-6.78c.25-2.63.44-5.25.55-7.86-2-1.19-5.88-1.51-6.93-1.56s-2.53,0-2.53,0v-1.73H50.2c-2.06-2.12-4-3.84-6.65-4.78,2.49,6.05,4.38,12.67,4.19,19.21A26.63,26.63,0,0,1,49.63,226.82Z"/><path class="cls-1" d="M222.85,238.94c.66-1.7,1.56-2.27,2-4.35a14.5,14.5,0,0,0,.12-4.16,11.2,11.2,0,0,0-.38-2.17l-.24-.7a14.16,14.16,0,0,0-3.18-5.24c-1.48-1.56-3.61-2-5.51-2.86a19.08,19.08,0,0,1-1.55,2.87,12.2,12.2,0,0,0-1.47,4.31l.38,1a5,5,0,0,1,.9-3,.42.42,0,0,1,.74.21,11.86,11.86,0,0,1-.15,2.52c-.09,1,0,2.74-.11,3.77l3.24,8.3a.18.18,0,0,1,.07.05c.91.56,2.25,1.07,2.68,2.15a20,20,0,0,1,.63,3,36.48,36.48,0,0,1,.75,5.41l2.06,5.26c.66-4.66-.22-8.75-1.34-13.28A4.49,4.49,0,0,1,222.85,238.94ZM217,231.56c-1.32-1.76-2.21-5.21-1.07-7.25.16-.28.53-.12.61.12a15.86,15.86,0,0,1,.42,3.08,35.76,35.76,0,0,1,.58,3.85A.3.3,0,0,1,217,231.56Zm3.42-.18a22.41,22.41,0,0,1-1.74-2.58c-.48-.89-1.13-2.19-.69-3.2a.4.4,0,0,1,.67-.13c.72.78.93,2.1,1.35,3.06a13.77,13.77,0,0,1,.89,2.6A.28.28,0,0,1,220.38,231.38Z"/><path class="cls-1" d="M0,0V667H375V0ZM123.05,256l1,2.47c-1.05.9-2.12,1.8-3.19,2.69-.75.63.18,2,1,1.42,1-.69,2-1.44,2.92-2.22l1,2.5s-2.37,2.22-2.38,2.25a30.34,30.34,0,0,0-3.17,3.51,21.18,21.18,0,0,0-.15-4.85.34.34,0,0,0-.68,0,46.46,46.46,0,0,0-.3,5c-.09-.18-.18-.37-.28-.55L117,265.59c-.33-.4-.66-.79-1-1.16-.51-3.39-1-6.75-1.39-10.16-.06-.46-.8-.36-.81.09a37.17,37.17,0,0,0,.79,8.68,39.86,39.86,0,0,1-2.09-15c2.68,3.79,5,7.46,6.06,12.2a.58.58,0,0,0,1.14-.09c0-.12,0-.13,0-.1a51.55,51.55,0,0,0,.69-10.83l1.66,4.21Zm12,49.54a26,26,0,0,0-3.07-3.6.8.8,0,0,0-1.35.75,52,52,0,0,1,1,20.35c-.2,1.21-.5,2.44-.77,3.68-2-4.89-4.15-9.87-4.09-15.26a37.51,37.51,0,0,1,3.44-14.93c.31-.71-.61-1.26-1.2-1a16.4,16.4,0,0,0-6.05,4.88,33.9,33.9,0,0,1,1.14-8.1c1.62-4.85,5.46-8.38,6.88-13.27.19-.65-.5-1.07-1.05-1a19.89,19.89,0,0,0-5.47,1.94c1.54-3,3-6.1,4.47-9.16l7.29,18.62.09.77C136.76,295.49,136,300.45,135,305.53Zm3.2-10.8,1.66,4.24c0,.36,0,.71,0,1.07a59.89,59.89,0,0,1-1.18,10.54c-.21.33-.45.63-.64,1-.13-.45-.32-.87-.49-1.3l-.76-1.71c-.17-.34-.33-.69-.51-1a.33.33,0,0,0,0-.06A59.07,59.07,0,0,0,138.23,294.73Zm-16.39-13.12q-.86.64-1.65,1.38c.3-1.35.55-2.71,1-4a50.31,50.31,0,0,1,1.93-5,.66.66,0,0,0-1.22-.52A31.71,31.71,0,0,0,118.33,285l-1.19,1.47,0-4.14a23,23,0,0,0-1.51-9.22c-.25-.6-1.26-.36-1.12.3.94,4.28,1,8.36,1.13,12.66a14.29,14.29,0,0,0-1.63-2.38s0-.32.07-.48c.85-8-2.46-15.45-6.51-22.18,4.85,2.28,9,5.37,10.59,10.95a1,1,0,0,0,1.88.31,29.7,29.7,0,0,1,6.53-7.41l1.3,3.31A129.9,129.9,0,0,0,121.84,281.61Zm45.23,127.31H140.15l-25.31-64.29c6.31,1,12.38,2.51,18.1,5.95,6.66,4,10.73,9.72,14.71,15.87a50.2,50.2,0,0,0-24.38-11.38.77.77,0,0,0-.64,1.27c5.39,4.76,18.43,10,29.91,21.73a58.88,58.88,0,0,1,15.09,29.05Zm1.47-4.85-2-6.45a50.56,50.56,0,0,0-10.9-18.39,98.7,98.7,0,0,0-15-13.07c-5.59-3.75-8.93-5.31-15.2-9,10.58,2.44,19.37,8,26.72,16.1.64.7,1.63-.27,1.06-1l-.62-.84c-4.78-8-9.38-16.52-17.58-21.44a53.32,53.32,0,0,0-20.87-7.12l-.76-2c-15.8-6.82-22.56-7.4-32.73-10.63-.59-.18-.46-1.3.22-1.4a50.23,50.23,0,0,1,26.68,3.52c-5.65-4.66-11.24-8.9-18.8-10.71-9-2.16-17.51-.66-26.38,1.09a.89.89,0,0,1-.86-.18,1,1,0,0,1,.13-1.17,23.2,23.2,0,0,1,9.95-6.66,57.73,57.73,0,0,1-20.43-3.94.85.85,0,0,1,0-1.62c.93-.36,1.84-.71,2.76-1-3.89-.38-7.77-1.9-11.46-2.84a.76.76,0,0,1-.36-1.26,10.62,10.62,0,0,1,5.49-2.4A46,46,0,0,1,31,289.94a.89.89,0,0,1,.46-1.47,23.6,23.6,0,0,1,4.31-.66,22.34,22.34,0,0,1-2.94-2.64,19,19,0,0,1-3.2-4.54c-.89-1.75-1.36-2.53-2.41-4.89-.46-1,.06-1.58.84-1.32A19.85,19.85,0,0,1,35.79,279a25.59,25.59,0,0,1,.06-9.71.84.84,0,0,1,1.53-.23c2.68,4.37,3.26,9.62,5.94,14.13,1.84,3.12,4.1,6,6.22,8.9a22.4,22.4,0,0,1-.53-4.61.92.92,0,0,1,1.51-.73,66.64,66.64,0,0,1,10.52,11c-.34-1.54-.58-3-.79-4.25-.15-.83.82-1.2,1.43-.83,1.08.67,2.18,1.33,3.27,2-2.75-3.34-4.65-7.21-7.2-11.2a85.1,85.1,0,0,0-20.13-22.08.74.74,0,0,1,.43-1.35,32.36,32.36,0,0,1,10.17,2.26c-2.79-7.84-7.93-13.36-14.09-18.94a.94.94,0,0,1,.69-1.67,30.8,30.8,0,0,1,7.28,1c-3.2-4.23-4.6-9.7-6-14.73a.85.85,0,0,1,1.31-.86c2.68,2,6,4.11,8.47,6.8a146,146,0,0,0-6.21-16.26c-.29-.65.25-1.54,1-1.27a12.7,12.7,0,0,1,5.2,3.89c-1-6.07-2.09-11.83-4.64-17.68a.89.89,0,0,1,1-1.27,17.12,17.12,0,0,1,1.74.46c-3.42-4-6.95-8.46-8.33-13.22-.14-.5.24-1.26.87-1.06a22.05,22.05,0,0,1,12.64,10c0-1.55,0-3.09,0-4.64a.85.85,0,0,1,1.44-.6c3.31,3.74,4.41,8.24,4.58,12.92.54-1.5,1.13-3,1.79-4.48.3-.67,1.51-.74,1.57.14.17,2.47.23,5,.21,7.43h63V210s-1.44,0-2.51.06l-.37,0c-4.32.37-8.06,2.74-8.86,7v.07a18,18,0,0,0,1.14,8.6l6.85,17.46c.26,3.61.4,7.2.41,10.83-1.51-3.29-4.07-6.32-6-9a.86.86,0,0,0-1.52.43c-.19,5.22-.5,10.85,1.28,15.85a30.93,30.93,0,0,0-6.64-3.15,1,1,0,0,0-1.17,1.39c4.2,7.18,7.45,14,7.76,22.3a32.4,32.4,0,0,0-9-5.21c-.73-.3-1.22.6-.82,1.16a85.19,85.19,0,0,1,12.56,27.11c1.24,4.56,1.89,8.83,3.49,12.84-.83-1-1.68-1.91-2.51-2.87a.91.91,0,0,0-1.62.36c-.16,1.21-.38,2.71-.52,4.28-2.36-3.45-4.42-10.73-5.46-15.29-.32-1.42-1.51-1.52-2-.17a20.12,20.12,0,0,0-.89,4.56,44.37,44.37,0,0,1-1.82-6.16c-1.19-5.11-.74-10.52-.83-15.13,0-1.32-1.32-1.61-2-.39-1.56,3-3.84,9-3.92,12.17l-2.51-6.54c-1.91,8.05-2.15,16.53,5.78,23.71,2.45,2.21,3.84,3.45,5.4,4.68l-6.86-17.28c-.5-4.11.76-10,2.42-13.7a56.45,56.45,0,0,0,.32,11.13c.69,4.06,1.84,7.06,4,12.25l1.5,3.83c.41.76,1.82.48,1.55-.46-1.07-3.64-1.68-6.59-1-10,1.15,6.89,3.93,13,6.41,18.63a7,7,0,0,0,1.58,3.14.73.73,0,0,0,1.22-.78c-1.39-3-1.31-6.85-.93-10.25,2.39,2.59,5.05,5.25,6.56,8.34s2.33,6.28,3.86,9.27c.33.64,1.43.27,1.21-.44L122.62,323a79.38,79.38,0,0,1-5.37-15.25,96,96,0,0,0-3.57-11.37,113.91,113.91,0,0,0-8.91-17.3c4.84,2.39,9.78,5,10.76,11.11.15.89,1.26.74,1.56.08a18.81,18.81,0,0,1,5.45-7.1l.42-.33a17.48,17.48,0,0,1,5.72-2.77c-1.55,3.14-3.83,5.83-5.21,9.06a26.27,26.27,0,0,0-1.83,7.63c-.08,1.32-.58,7.48-1.07,8.27-.23-1-.51-1.91-.7-2.86-.31-1.51-.48-3.05-.81-4.55a.31.31,0,0,0-.61,0,22,22,0,0,0,1.63,9.53c0,.24-.11.47-.14.71-.11,1.09,1.51,1.42,1.69.31a20.17,20.17,0,0,1,.56-2.32l.12-.4a13.69,13.69,0,0,1,5.38-7.24,34.92,34.92,0,0,0-.63,22.28l3.32,8.74c0,.31-.09.62-.1.93,0,.09,0,.17,0,.26a37.33,37.33,0,0,0-4.22-6.24c-.32-.37-.79.14-.6.51,1.49,2.84,3.32,5.51,4.89,8.3a19.39,19.39,0,0,0,4,10.35c.45.58,1.47,0,1.14-.65-1.83-4-4.08-7.87-3.44-12.43l.06-.35a.43.43,0,0,0,0-.11c.5-3.27,1.32-6.47,1.55-9.79a58,58,0,0,0-1-14.89,26.32,26.32,0,0,1,4.47,8.55,0,0,0,0,0,0,0,.68.68,0,0,0,1.22.23l0,0,0,0a20.6,20.6,0,0,1,4.87-6.2l1.05,2.68c-3.34,4.86-6.18,10.17-7.11,15.7,0,.05,0,.08,0,.12a14.58,14.58,0,0,0-2.08,6.45.76.76,0,0,0,1.49.25c1.4-5.35,4-10.41,9.85-11.06-4.32,5.65-7.16,14.18-5.78,21,.85,4.23,4.19,7.81,6.66,11.16a82.06,82.06,0,0,1,7.76,12.32v0A34.18,34.18,0,0,0,158,378.34c.43,1,1.87.29,1.54-.71-1.86-5.57-3.92-11.67-1.9-17.52.9-2.61,2.2-5,3.23-7.56l1.8,4.59c.06,5.37-1.59,11-.93,16.36.9,7.21,3.73,14.51,9.26,22.26Zm-28.4-95.5a36.74,36.74,0,0,0,.71-6.34l0-.73,1.74,4.42C142.12,306.41,140.6,308,140.14,308.57Zm5,3.8,3,7.72a12.43,12.43,0,0,0-8.31,3.08,89.28,89.28,0,0,1,3.94-8.56C144.22,313.86,144.68,313.11,145.14,312.37Zm3.69,9.42L160,350.23c-1.43,4.24-4.28,8-4.71,12.56,0,.15,0,.3,0,.45-2.84-5.47-6.87-10-10.19-15.21C139.74,339.64,143.55,329.21,148.83,321.79ZM276,278c-3.72,8-14.36,9.35-21.4,5.31-1.44-.83-2.66-1.71-4.39-1.76-1.39-.05-2.83.19-4.21.25-2.85.12-5.7.05-8.54,0-.94,0-2.07-.05-3.26-.13l40.64,104-.29.87-6.88,22.35H241l-38.55-98.46c-2.6,4.08-5.09,8.23-7.54,12.45-4.36,7.49-9.06,17.66-12.75,25.52a93.35,93.35,0,0,0-5.88,16.67c2.76-3.45,5.84-6.1,8.44-9.73,2.95-4.12,4.11-8.83,9.22-11,5.38-2.33,11.84,2.79,11.44,8.45s-9.68,9.18-14.53,8.58c-1.07-.14-2.48-2-3.53-1.5-1.6.73-6.54,9.05-7.9,11.86A153,153,0,0,0,174,386.28L172,392.62h0l-.68,2.24c-5.94-9.71-8.53-17.23-8.2-24.73.13-3.1.68-6.21,1-9.28l4.93,12.73c.8-3.45,1.67-7.2,1.95-8.42a116.18,116.18,0,0,0,2.34-12.68c-2.29-4.14-4.42-10-7.1-13.75-1.53-2.18-3-5.09-4.32-7.41-.59-1.05-1-2.37-1.61-3.35-1.12-1.7-3-1.85-4.72-2.47a8.78,8.78,0,0,1-3.13-2.62,13.38,13.38,0,0,1-3.07-7c-.62-4.7,4.34-10.45,9-7.42a41.67,41.67,0,0,0,4,2.69,4.87,4.87,0,0,1,2,2.27,14.87,14.87,0,0,1,1.21,8.21c-.27,1.93-1.93,3.33-.52,5.51,1,1.54,2.67,2.8,3.7,4.3,2.54,3.71,4.8,11.91,7.92,15.55,2.67-5.48,4.21-12.78,7-18.17,1.67-3.19-.52-5.8-1.85-8.67-1.71-3.69-3.35-7.41-4.95-11.15-2.52-5.87-4.7-11.88-6.63-18-.63-2-1.27-4-1.74-6a24.64,24.64,0,0,1-.61-4.18c-.06-1.15.36-2.8-.91-3.39-.79-.37-1.78-.5-2.6-.84s-1.75-.77-2.61-1.17c-3-1.39-6.14-2.33-9.19-3.48a46.12,46.12,0,0,1-7-3.64c-2.83-1.66-5.12-4.15-8.44-4.81-4.3-.85-9.21-2.08-11.54-6.14-1.89-3.3-1.87-6.46.68-9.37,4.23-4.8,14.44-.55,15.75,5.06a30.89,30.89,0,0,1,.45,5.6c.19,3.51,4.34,5.51,7,7.16,5.43,3.38,11.94,4.48,17.85,6.8-1.87-3.26-4.59-6.51-6.13-11.08A66,66,0,0,1,158.18,246c-2.72-2-5-3.69-5.74-7.08a16.3,16.3,0,0,1,.5-8.31c1.72-5.28,7.24-6.88,11.34-3.45,5.33,4.49,1.95,12.81-.39,17.8-.95,2-.36,5.7.45,9.23a27.53,27.53,0,0,0,4,9.67,18,18,0,0,1,2.49,5.09l.16.58c.1-2.51.51-5,.78-7.47a67.63,67.63,0,0,1,1.25-7.49c.48-2.09,1.44-4,.91-6.13a13.4,13.4,0,0,1,.77-8.47L169,225.48a32.34,32.34,0,0,0-5.16-8.6,27.36,27.36,0,0,0-2.28-2.45,16.06,16.06,0,0,0-10-4.37h-.26c-1.08-.06-2.53,0-2.53,0v-1.73h26.13a15.42,15.42,0,0,1-2.82-6.89c-.59-3.6-.67-11.1,3.36-13a3.92,3.92,0,0,1,4.12.2c2.16,1.18,4.49,2.4,6.06,4.36,3.49,4.32,3.14,10.08,3,15.3h12.58c0-.57,0-1.14,0-1.72.11-4.39-4.4-6.84-4.88-11.32-.45-4.18,1.6-7.31,3.23-11,1-2.29,2-5.07,4.44-6.11s4.62,1.94,5.57,3.71c1.64,3.07,1.34,6.53.83,9.85-.7,4.52-2.95,7.76-5,11.7a30.62,30.62,0,0,0,.07,4.88h5.68c1.71-4.45,3.24-8.89,1.09-13.59-1.16-2.52-.37-6.06.54-8.52,1.25-3.38,3.52-5.48,6.29-7.7.65-.52,3.2-3.32,4.36-2.08,2.24,2.4,2.64,6,3,9.09.64,6.17-2.13,13.59-8.84,14.9a82.32,82.32,0,0,0-2.87,7.9H223V210s-1.44,0-2.51.06l-.36,0c-4.33.37-8.18,2.8-9,7.07a16.57,16.57,0,0,0,.68,7c.06-.21.11-.42.17-.62.54-1.94,2-3.4,2.53-5.33a.73.73,0,0,1,1.06-.47c1.87,1.05,4.15,1.35,5.8,2.79a14.87,14.87,0,0,1,2.74,3.18,25.17,25.17,0,0,1,5.4-3.57c0-.06.05-.12.11-.17,4.06-2.66,3.79-9.13,9.06-10.93a10.81,10.81,0,0,1,3.79-.54c1.66,0,4.14,1.14,5.73.43.81-.37,1.55.41,1.77,1.12,1.18,3.71-.79,8.5-3.37,11.82a.79.79,0,0,1,.87.29,14.16,14.16,0,0,1-2.38,20.69,13.37,13.37,0,0,1-2.9,1.59c-2,.86-2.39,1.92-3.22,3.83-1.07,2.43-2.31,4.78-3.6,7.1a66.21,66.21,0,0,1-7.33,10.67l1.41,3.61h.12c2.51,0,4.62-1.53,6.92-2.25h.08a13.91,13.91,0,0,1,2.11-4.38c1.61-2.31,4-1.67,6-3.15s3-1,3.63.15c.83-.21,2.4-2.53,2.95-3.12,1.08-1.14,2-1.72,1-3.13a6.44,6.44,0,0,1-.54-6c.82-2.38,3.34-3.7,5.52-4.54,1.52-.58,3.1-1,4.6-1.6a3.83,3.83,0,0,1,2-.54c1.63.3,2.7,2.54,3.14,4a11.2,11.2,0,0,1-.59,7.6c-1.06,2.64-3.6,4.14-6.21,4.81-2.4.61-3.79.59-5.73,2.56a39.62,39.62,0,0,1-5.06,3.91v0c1.47,5.46-2.32,10.86-7.5,12.39a2.57,2.57,0,0,1-2-.3c-1-.61-2,0-2.91.73a18.7,18.7,0,0,0,2.12-.05,63.71,63.71,0,0,1,6.77-.2c3.77,0,5.82-.35,8.35-2.75,1.48-1.41,4.29-2,6.17-2.62,3.51-1.17,7.81-1.26,10.93,1C272.81,273.33,277.07,275.62,276,278Zm31.47,3.38s-3.33-36-7.32-48.66c-1.91-6.08-4.9-13.66-10.64-18.34a17,17,0,0,0-2.38-1.67A19.83,19.83,0,0,0,276.43,210v-1.73H330Z"/><path class="cls-1" d="M236,242.44c-.35-3.49-1.61-6.33-.91-9.94a12.78,12.78,0,0,1,3.65-6,16.32,16.32,0,0,1-7.55-2.27A.9.9,0,0,1,231,224c-1.6,1.33-3.36,2.53-5,3.81a13.79,13.79,0,0,1-.85,10.12,7,7,0,0,0-1.33,2.95c-.11,1.32.79,3.09,1.16,4.36a23,23,0,0,1,.6,7.62,31.64,31.64,0,0,1-.71,5l1.27,3.24c1.21-2,2.3-4,3.47-5.92C231.69,251.79,236.45,246.56,236,242.44Z"/><path class="cls-1" d="M255.62,257.44a5.39,5.39,0,0,1,2.37-.77,10.79,10.79,0,0,0,6.15-2.88c2.23-2.24,2.57-6.32,1.31-9.08s-3.82-1.48-5.9-.79c-5.26,1.77-9,5.08-5.16,10.61a.69.69,0,0,1-.06.8,42.06,42.06,0,0,1-4.42,4.74,4.51,4.51,0,0,1-1.16,1.08,18.7,18.7,0,0,1,.48,2C251.24,261.15,253.47,259.18,255.62,257.44Zm9.05-11.71c1.38,1.78.52,5.25-.91,6.78a.32.32,0,0,1-.54-.27c.1-1,.45-2,.58-3s-.1-2.34.36-3.41A.32.32,0,0,1,264.67,245.73Zm-1.43-.69a.38.38,0,0,1,.52.16c.46,1-.32,2.48-1.08,3.13a.44.44,0,0,1-.73-.19A3.52,3.52,0,0,1,263.24,245Zm-1.78-.06a.39.39,0,0,1,.17.73c-.91.49-1.44,1.51-2.4,1.86a.31.31,0,0,1-.4-.3C258.75,246,260.28,245,261.46,245Z"/><path class="cls-1" d="M236.5,250.1c.9-1.83,1.47-4.54,2.7-6.13.53-.68,3.38-1.31,4.1-1.7a13,13,0,0,0,5.29-6,11.88,11.88,0,0,0-.7-10.63c.79,3.94.83,9.47-2.11,11.82a.23.23,0,0,1-.36-.24,21.18,21.18,0,0,0,.75-12.08,11.28,11.28,0,0,1-.28,2.11,17.37,17.37,0,0,1-1.25,4.78c-.13.27-.48.08-.5-.15a15.67,15.67,0,0,1,.25-3.34c.11-1,.27-1.93.36-2.91,0-.22,0-.39,0-.56-.38.52-.82,1-1.25,1.52-.93,1.11-1.5,2.5-2.48,3.55-.24.26-.83.23-.84-.23a6.49,6.49,0,0,1,2.13-4.25,8.58,8.58,0,0,1-1.37.53.9.9,0,0,1-.14.2c-4,3.73-5.21,7.68-4.17,13,.43,2.21,1.41,4.3.24,6.48-2.07,3.86-4.6,7.53-6.89,11.27-1.11,1.81-2.14,3.7-3.29,5.51l.75,1.91c1.88-2.53,3.71-5.1,5.38-7.8C234.2,254.62,235.37,252.37,236.5,250.1Z"/><path class="cls-1" d="M235.73,272.38a.61.61,0,0,1,.28-.21q0-.53,0-1a24.23,24.23,0,0,1-5.09,2.31l.73,1.87A10.06,10.06,0,0,0,235.73,272.38Z"/><path class="cls-1" d="M234.14,276.94c1.3-.63,2.31-1.58,3.64-2.2a2.38,2.38,0,0,1,1.67-.36c2.45.87,3.9.43,5.9-1.32a9.26,9.26,0,0,0,3-7.47c-.13-1.12-.53-2.24-.73-3.36-.6-3.36-2.07-1-2.85-.7-2,.66-3.57.57-5.09,2.33-2.06,2.39-2.28,5.6-2.95,8.56a.71.71,0,0,1,0,.92,9.78,9.78,0,0,1-4.61,3.27l.35.9.79-.21Zm12.67-10.79a.3.3,0,0,1,.55,0c.72,1.89-1,4-2.2,5.29-1.06,1.07-3.59,2.82-5.14,1.82-.23-.15-.38-.57-.05-.73a13.17,13.17,0,0,1,2-.55,7.32,7.32,0,0,0,2.68-1.73A8.61,8.61,0,0,0,246.81,266.15Zm-3.35,3a10.38,10.38,0,0,1-2.36,2.22c-.6.46-1.27,1.07-2,.66a.37.37,0,0,1-.18-.36c.12-1,1.4-1.4,2.12-1.91a6.34,6.34,0,0,1,2-1.18A.38.38,0,0,1,243.46,269.13Zm-2.61-1.35c.36-.19.8.3.46.59a8.83,8.83,0,0,0-1.43,1.5,1,1,0,0,1-.77.53.34.34,0,0,1-.39-.28C238.46,269,240,268.18,240.85,267.78Z"/><path class="cls-1" d="M236.13,269.82a14.41,14.41,0,0,1,.25-1.51,14.63,14.63,0,0,1-4.95,2.42A6.06,6.06,0,0,1,230,271l.52,1.32c.69-.21,1.38-.45,2.05-.71C233.83,271.09,234.81,270.15,236.13,269.82Z"/><path class="cls-1" d="M269.73,272.82a10.61,10.61,0,0,0-7-.8,26.71,26.71,0,0,0-4.83,1.57c-2.05.79-3.2,2.58-5,3.46-2.3,1.12-5.47.93-8,.91-3.12,0-6.56-.13-9.75.12a12,12,0,0,1-2.07.8l.6,1.54c2.19.17,4.41.14,6.31.16,4,0,8.34-.85,12.26-.2a8.83,8.83,0,0,1,3.14,1.81c2.36,1.67,5.72,1.8,8.51,1.81,5,0,7.74-2.52,10.66-6.22C275.57,276.47,270.35,273.18,269.73,272.82Zm-8.83,8.3a7.14,7.14,0,0,1-2.43.57c-1.06.14-2.34.22-3.09-.68a.67.67,0,0,1,.79-1.05,5.23,5.23,0,0,0,2.09.36c.81,0,2.08-.27,2.7.38A.27.27,0,0,1,260.9,281.12Zm3.16-4.18c-1.5.83-3.25.94-4.86,1.52a17.42,17.42,0,0,1-4.21,1.31c-.76.07-1.14-1.12-.35-1.34,1.56-.45,3.08-1,4.63-1.45a15.35,15.35,0,0,1,4.73-.36C264.18,276.62,264.19,276.86,264.06,276.94Zm3.41-3.14c-1.91.41-3.81.44-5.71,1a21.21,21.21,0,0,0-5.49,2.94c-.57.39-1.44-.36-.9-.9,2.68-2.66,8.42-5.09,12.16-3.52A.23.23,0,0,1,267.47,273.8Z"/></g></g></svg>